<svg width="200" height="200" viewBox="0 0 200 200" fill="none" xmlns="http://www.w3.org/2000/svg">
<path d="M164.072 29.9531C163.442 29.4726 162.714 29.1368 161.939 28.9697C161.164 28.8026 160.362 28.8083 159.59 28.9863C148.604 31.5352 116.963 36.7207 102.988 29.4258C80.4004 17.5605 55.791 23.1855 44.4531 26.877V18.7031C44.4502 17.3054 43.8937 15.9658 42.9054 14.9774C41.917 13.9891 40.5774 13.4326 39.1797 13.4297C37.782 13.4326 36.4423 13.9891 35.454 14.9774C34.4657 15.9658 33.9092 17.3054 33.9062 18.7031V181.74C33.9062 184.641 36.2793 187.014 39.1797 187.014C42.0801 187.014 44.4531 184.641 44.4531 181.74V119.514C53.0664 116.789 83.3887 108.527 101.846 119.865C110.811 125.402 120.742 127.248 129.883 127.248C147.285 127.248 162.051 120.568 163.018 120.129C163.929 119.688 164.699 119.003 165.242 118.149C165.786 117.295 166.08 116.307 166.094 115.295V34.084C166.083 33.2889 165.896 32.5061 165.546 31.7918C165.197 31.0776 164.693 30.4496 164.072 29.9531Z" fill="#E4FF38"/>
</svg>
