<svg width="200" height="200" viewBox="0 0 200 200" fill="none" xmlns="http://www.w3.org/2000/svg">
<path d="M43.184 93.182C39.3506 93.182 32.3201 97.5626 22.0923 106.324C20.8824 107.361 19.4004 108.03 17.8219 108.251C16.2434 108.472 14.6347 108.235 13.1865 107.57C11.7383 106.904 10.5115 105.837 9.6514 104.495C8.79132 103.153 8.33411 101.593 8.33398 99.9987C8.33398 87.5709 10.7368 75.6765 15.5423 64.3154C20.1812 53.3487 26.7284 43.6376 35.184 35.182C43.6395 26.7265 53.3507 20.1793 64.3173 15.5404C75.6784 10.7348 87.5729 8.33203 100.001 8.33203C112.428 8.33203 124.323 10.7348 135.684 15.5404C146.651 20.1793 156.362 26.7265 164.817 35.182C173.273 43.6376 179.82 53.3487 184.459 64.3154C189.265 75.6765 191.667 87.5709 191.667 99.9987C191.667 101.592 191.211 103.151 190.352 104.493C189.493 105.835 188.267 106.902 186.82 107.568C185.373 108.235 183.766 108.472 182.188 108.253C180.61 108.034 179.128 107.368 177.917 106.332C167.69 97.5654 160.656 93.182 156.817 93.182C152.984 93.182 145.956 97.5626 135.734 106.324C134.14 107.693 132.087 108.409 129.986 108.329C127.886 108.248 125.894 107.377 124.409 105.89C115.937 97.4181 107.801 93.182 100.001 93.182C92.2007 93.182 84.0618 97.4181 75.584 105.89C74.0996 107.373 72.1108 108.241 70.0147 108.321C67.9185 108.401 65.8691 107.688 64.2757 106.324C54.0534 97.5626 47.0229 93.182 43.184 93.182ZM43.184 76.5154C49.9618 76.5154 58.6979 80.6709 69.3923 88.982C79.359 80.6709 89.5618 76.5154 100.001 76.5154C110.445 76.5154 120.648 80.6709 130.609 88.982C141.309 80.6709 150.045 76.5154 156.817 76.5154C161.301 76.5154 166.64 78.332 172.834 81.9654C171.895 78.1765 170.653 74.457 169.109 70.807C165.315 61.8348 159.956 53.8876 153.034 46.9654C146.112 40.0431 138.165 34.682 129.192 30.882C119.909 26.9598 110.178 24.9987 100.001 24.9987C89.8229 24.9987 80.0923 26.9626 70.809 30.8904C61.8368 34.6848 53.8895 40.0431 46.9673 46.9654C40.0451 53.8876 34.684 61.8348 30.884 70.807C29.3451 74.457 28.1062 78.1793 27.1673 81.9737C33.3618 78.3348 38.7006 76.5154 43.184 76.5154Z" fill="#E4FF38"/>
<path d="M77.5254 97.1513L107.834 180.485C108.486 182.268 108.51 184.22 107.902 186.019C107.294 187.818 106.089 189.355 104.488 190.376C102.887 191.397 100.985 191.84 99.0974 191.632C97.2099 191.425 95.4499 190.579 94.1087 189.235L10.7754 105.901C9.21171 104.339 8.33281 102.219 8.33203 100.008C8.33125 97.7978 9.20865 95.6775 10.7712 94.1138C12.3338 92.5501 14.4535 91.6712 16.6641 91.6704C18.8747 91.6697 20.995 92.5471 22.5587 94.1096L79.3337 150.885L61.8671 102.851C61.5412 101.954 61.372 101.006 61.3671 100.051V100.001C61.367 97.7998 62.2381 95.6877 63.7901 94.1264C65.3421 92.565 67.4489 91.6812 69.6504 91.668H69.7004C71.411 91.6675 73.0803 92.1934 74.4817 93.1744C75.8831 94.1553 76.9487 95.5438 77.5337 97.1513H77.5254Z" fill="#E4FF38"/>
<path d="M138.134 102.851L120.667 150.884L177.434 94.1089C178.983 92.5557 181.081 91.676 183.275 91.6604C185.468 91.6448 187.579 92.4946 189.15 94.0255L189.225 94.1089C190.788 95.6716 191.665 97.7908 191.665 100.001C191.665 102.21 190.788 104.329 189.225 105.892L105.892 189.226C104.551 190.567 102.792 191.412 100.907 191.619C99.0207 191.826 97.1208 191.383 95.5207 190.364C93.9206 189.345 92.7161 187.81 92.1063 186.014C91.4965 184.217 91.5179 182.266 92.167 180.484L122.467 97.1505C123.212 95.1014 124.73 93.4259 126.696 92.4834C128.662 91.5409 130.92 91.4064 132.984 92.1089L133.15 92.1672C135.199 92.9122 136.875 94.4305 137.817 96.3966C138.76 98.3627 138.894 100.62 138.192 102.684L138.134 102.851Z" fill="#E4FF38"/>
</svg>
