<svg width="200" height="200" viewBox="0 0 200 200" fill="none" xmlns="http://www.w3.org/2000/svg">
<g clip-path="url(#clip0_569_220)">
<path d="M9.09897 179.996H190.832C195.846 181.811 199.911 185.881 199.916 190.906C199.916 193.317 198.959 195.629 197.254 197.333C195.549 199.038 193.237 199.996 190.827 199.996H9.09897C7.90527 199.996 6.72326 199.761 5.62042 199.304C4.51759 198.847 3.51553 198.178 2.67145 197.333C1.82738 196.489 1.15782 195.487 0.701015 194.384C0.244206 193.282 0.0090893 192.1 0.0090893 190.906C0.0090893 185.881 4.07904 181.806 9.09897 179.996ZM20.4538 69.9975H179.472C181.977 67.2626 184.012 69.2975 184.012 71.8025C184.012 72.3991 183.895 72.99 183.667 73.5414C183.44 74.0928 183.105 74.5939 182.684 75.016C182.262 75.4381 181.761 75.7729 181.21 76.0014C180.659 76.2298 180.068 76.3474 179.472 76.3474H175.007V158.166H179.472C184.492 158.166 188.562 162.241 188.562 167.266C188.562 172.286 184.492 176.361 179.472 174.996H20.4538C15.4339 176.361 11.3639 172.286 11.3639 167.261C11.3639 162.236 15.4339 158.166 20.4538 158.166H25.0088V76.3474H20.4588C19.2534 76.3474 18.0974 75.8686 17.2451 75.0163C16.3927 74.1639 15.9139 73.0079 15.9139 71.8025C15.9139 69.2975 17.9439 67.2626 20.4538 69.9975ZM155.007 154.996V79.9974H40.8985V154.996H155.007ZM129.797 80.2074C130.46 79.548 131.355 79.1737 132.29 79.1644C133.225 79.155 134.126 79.5114 134.802 80.1574C139.625 84.9309 143.453 90.6142 146.063 96.878C148.673 103.142 150.013 109.861 150.007 116.647C150.007 130.512 144.472 143.522 134.807 153.131C134.136 153.799 133.227 154.174 132.28 154.174C131.333 154.174 130.424 153.799 129.752 153.131C129.42 152.803 129.157 152.411 128.977 151.98C128.797 151.549 128.704 151.086 128.704 150.619C128.704 150.152 128.797 149.689 128.977 149.258C129.157 148.826 129.42 148.435 129.752 148.106C133.911 143.991 137.211 139.091 139.461 133.691C141.712 128.291 142.868 122.497 142.862 116.647C142.868 110.797 141.713 105.004 139.463 99.6036C137.213 94.2033 133.915 89.3033 129.757 85.1873C129.107 84.5201 128.747 83.6232 128.754 82.6916C128.762 81.76 129.136 80.869 129.797 80.2124V80.2074ZM65.2132 80.1574C65.8892 79.5114 66.7909 79.155 67.7259 79.1644C68.6609 79.1737 69.5552 79.548 70.2182 80.2074C70.8791 80.864 71.254 81.755 71.2615 82.6866C71.269 83.6182 70.9084 84.5151 70.2582 85.1823C66.1005 89.2979 62.8013 94.1979 60.5517 99.5983C58.3022 104.999 57.147 110.792 57.1533 116.642C57.1533 128.607 61.9183 139.807 70.2582 148.101C70.9084 148.769 71.269 149.666 71.2615 150.597C71.254 151.529 70.8791 152.42 70.2182 153.076C69.5552 153.736 68.6609 154.11 67.7259 154.119C66.7909 154.129 65.8892 153.772 65.2132 153.126C60.391 148.353 56.5639 142.671 53.9539 136.408C51.3439 130.145 50.0029 123.427 50.0084 116.642C50.0084 102.777 55.5434 89.7673 65.2082 80.1574H65.2132ZM74.9781 89.8673C75.6532 89.2221 76.5534 88.8658 77.4872 88.8742C78.421 88.8826 79.3146 89.255 79.978 89.9123C81.358 91.2822 81.378 93.4922 80.028 94.8872C77.1529 97.7322 74.8711 101.12 73.315 104.853C71.759 108.587 70.9595 112.592 70.9632 116.637C70.9632 124.912 74.2581 132.662 80.028 138.397C80.4852 138.833 80.8169 139.384 80.9887 139.993C81.1604 140.601 81.1659 141.244 81.0046 141.855C80.8432 142.467 80.5209 143.023 80.0713 143.468C79.6217 143.912 79.0611 144.228 78.4481 144.382C77.836 144.541 77.1925 144.536 76.5831 144.366C75.9737 144.197 75.4199 143.869 74.9781 143.417C71.4392 139.914 68.6306 135.744 66.7149 131.148C64.7993 126.552 63.8147 121.621 63.8182 116.642C63.8182 106.462 67.8782 96.9172 74.9781 89.8673ZM121.567 88.9023C122.18 88.7427 122.823 88.7479 123.432 88.9174C124.042 89.0869 124.596 89.4146 125.037 89.8673C128.576 93.37 131.385 97.5402 133.301 102.136C135.216 106.732 136.201 111.663 136.197 116.642C136.201 121.621 135.217 126.552 133.301 131.148C131.386 135.744 128.577 139.914 125.037 143.417C124.362 144.062 123.462 144.418 122.528 144.41C121.595 144.401 120.701 144.029 120.037 143.372C119.375 142.716 118.998 141.826 118.989 140.894C118.98 139.963 119.339 139.065 119.987 138.397C122.863 135.551 125.145 132.163 126.701 128.428C128.258 124.694 129.057 120.688 129.052 116.642C129.052 108.372 125.757 100.622 119.987 94.8922C119.529 94.4558 119.196 93.9043 119.024 93.2953C118.851 92.6863 118.845 92.0422 119.007 91.4301C119.168 90.8181 119.491 90.2606 119.941 89.816C120.392 89.3713 120.953 89.0558 121.567 88.9023ZM84.738 99.5721C85.4136 98.924 86.3159 98.5658 87.2521 98.5742C88.1883 98.5826 89.0841 98.9569 89.7479 99.6171C91.1229 100.987 91.1479 103.202 89.7879 104.592C88.1949 106.168 86.9308 108.045 86.0691 110.113C85.2073 112.182 84.7651 114.401 84.768 116.642C84.768 121.227 86.5929 125.517 89.7879 128.692C90.4382 129.359 90.7987 130.256 90.7912 131.187C90.7838 132.119 90.4088 133.01 89.7479 133.667C89.0841 134.327 88.1883 134.701 87.2521 134.71C86.3159 134.718 85.4136 134.36 84.738 133.712C82.483 131.478 80.6935 128.819 79.473 125.889C78.2526 122.959 77.6255 119.816 77.6281 116.642C77.6255 113.468 78.2526 110.325 79.473 107.395C80.6935 104.465 82.483 101.806 84.738 99.5721ZM111.803 98.6071C112.415 98.4466 113.06 98.4513 113.67 98.6209C114.281 98.7904 114.835 99.1186 115.278 99.5721C117.533 101.806 119.322 104.465 120.542 107.395C121.763 110.325 122.39 113.468 122.387 116.642C122.39 119.816 121.763 122.959 120.542 125.889C119.322 128.819 117.533 131.478 115.278 133.712C114.601 134.359 113.699 134.716 112.762 134.707C111.826 134.698 110.931 134.323 110.268 133.662C109.608 133.005 109.234 132.115 109.227 131.185C109.219 130.255 109.579 129.359 110.228 128.692C111.821 127.116 113.085 125.239 113.946 123.17C114.808 121.102 115.25 118.883 115.248 116.642C115.248 112.057 113.423 107.767 110.228 104.592C109.77 104.156 109.439 103.605 109.267 102.997C109.094 102.389 109.089 101.746 109.249 101.135C109.41 100.524 109.732 99.967 110.181 99.5225C110.63 99.0779 111.19 98.7618 111.803 98.6071ZM91.6729 116.662C91.6727 115.567 91.8882 114.483 92.307 113.472C92.7258 112.461 93.3397 111.542 94.1137 110.767C94.8876 109.993 95.8065 109.379 96.8178 108.96C97.8292 108.541 98.9131 108.326 100.008 108.326C101.102 108.326 102.186 108.541 103.198 108.96C104.209 109.379 105.128 109.993 105.902 110.767C106.676 111.542 107.29 112.461 107.709 113.472C108.127 114.483 108.343 115.567 108.343 116.662C108.342 118.872 107.464 120.992 105.901 122.555C104.338 124.118 102.218 124.996 100.008 124.996C97.7974 124.996 95.6776 124.118 94.1146 122.555C92.5515 120.992 91.6732 118.872 91.6729 116.662ZM5.37402 41.7029L96.2378 0.798439C97.41 0.272116 98.6803 0 99.9653 0C101.25 0 102.521 0.272116 103.693 0.798439L193.862 41.3879C195.655 42.0037 197.212 43.1646 198.313 44.7083C199.415 46.252 200.007 48.1013 200.006 49.9978C200.006 55.0227 195.941 59.0927 190.917 60.0027H9.09897C4.80903 59.0877 1.10907 56.0977 0.209087 51.9028C-0.228236 49.8694 0.0449596 47.7476 0.983088 45.8914C1.92122 44.0351 3.46753 42.5567 5.36402 41.7029H5.37402Z" fill="#E4FF38"/>
</g>
<defs>
<clipPath id="clip0_569_220">
<rect width="200" height="200" fill="white"/>
</clipPath>
</defs>
</svg>
