<svg width="200" height="200" viewBox="0 0 200 200" fill="none" xmlns="http://www.w3.org/2000/svg">
<path d="M66.6673 66.668H133.334V100.001H66.6673V66.668ZM131.977 58.3346L120.072 16.668H79.929L68.0241 58.3346H131.977ZM59.3574 58.3346L71.2624 16.668H41.0397C39.2419 16.6729 37.4756 17.1408 35.9111 18.0266C34.3466 18.9124 33.0366 20.1862 32.1074 21.7253L10.1413 58.3346H59.3574ZM140.644 58.3346H189.863L167.896 21.7253C166.967 20.1862 165.657 18.9124 164.093 18.0266C162.528 17.1408 160.762 16.6729 158.964 16.668H128.739L140.644 58.3346ZM191.667 66.668V172.918C191.664 175.68 190.566 178.327 188.613 180.28C186.66 182.233 184.012 183.332 181.251 183.335H18.7507C15.9889 183.332 13.3412 182.233 11.3884 180.28C9.43555 178.327 8.33709 175.68 8.33398 172.918V66.668H58.334V104.168C58.334 104.715 58.4418 105.257 58.6512 105.762C58.8605 106.268 59.1675 106.727 59.5544 107.114C59.9413 107.501 60.4006 107.808 60.9061 108.017C61.4117 108.227 61.9535 108.335 62.5007 108.335H137.501C138.048 108.335 138.59 108.227 139.095 108.017C139.601 107.808 140.06 107.501 140.447 107.114C140.834 106.727 141.141 106.268 141.35 105.762C141.56 105.257 141.667 104.715 141.667 104.168V66.668H191.667ZM150.001 154.168C150.001 153.621 149.893 153.079 149.683 152.573C149.474 152.068 149.167 151.609 148.78 151.222C148.393 150.835 147.934 150.528 147.428 150.318C146.923 150.109 146.381 150.001 145.834 150.001H120.834C119.729 150.001 118.669 150.44 117.888 151.222C117.106 152.003 116.667 153.063 116.667 154.168C116.667 155.273 117.106 156.333 117.888 157.114C118.669 157.896 119.729 158.335 120.834 158.335H145.834C146.381 158.335 146.923 158.227 147.428 158.017C147.934 157.808 148.393 157.501 148.78 157.114C149.167 156.727 149.474 156.268 149.683 155.762C149.893 155.257 150.001 154.715 150.001 154.168ZM166.667 154.168C166.667 153.621 166.56 153.079 166.35 152.573C166.141 152.068 165.834 151.609 165.447 151.222C165.06 150.835 164.601 150.528 164.095 150.318C163.59 150.109 163.048 150.001 162.501 150.001C161.677 150.001 160.871 150.246 160.186 150.704C159.501 151.161 158.967 151.812 158.651 152.573C158.336 153.335 158.253 154.173 158.414 154.981C158.575 155.789 158.972 156.532 159.554 157.114C160.137 157.697 160.88 158.094 161.688 158.255C162.496 158.415 163.334 158.333 164.095 158.017C164.857 157.702 165.507 157.168 165.965 156.483C166.423 155.798 166.667 154.992 166.667 154.168Z" fill="#E4FF38"/>
</svg>
